<?xml version="1.0" encoding="UTF-8"?>
<svg id="Layer_1" xmlns="http://www.w3.org/2000/svg" version="1.1" viewBox="0 0 1856.25 262.5">
  <!-- Generator: Adobe Illustrator 29.8.2, SVG Export Plug-In . SVG Version: 2.1.1 Build 3)  -->
  <path d="M57.95,76.42c0,6.44-2.24,11.85-6.71,16.25-4.47,4.39-9.99,6.59-16.55,6.59s-12.07-2.2-16.55-6.59c-4.47-4.39-6.71-9.81-6.71-16.25s2.24-11.86,6.71-16.25c4.47-4.39,9.99-6.59,16.55-6.59s12.07,2.2,16.55,6.59c4.47,4.39,6.71,9.81,6.71,16.25ZM57.95,105.7c0,6.44-2.24,11.85-6.71,16.25-4.47,4.39-9.99,6.59-16.55,6.59s-12.07-2.2-16.55-6.59c-4.47-4.39-6.71-9.81-6.71-16.25s2.24-11.86,6.71-16.25c4.47-4.39,9.99-6.58,16.55-6.58s12.07,2.2,16.55,6.58c4.47,4.39,6.71,9.81,6.71,16.25ZM57.95,134.97c0,6.44-2.24,11.85-6.71,16.25s-9.99,6.59-16.55,6.59-12.07-2.2-16.55-6.59c-4.47-4.39-6.71-9.81-6.71-16.25s2.24-11.86,6.71-16.25c4.47-4.39,9.99-6.59,16.55-6.59s12.07,2.2,16.55,6.59c4.47,4.39,6.71,9.81,6.71,16.25ZM57.95,164.24c0,6.44-2.24,11.86-6.71,16.25-4.47,4.39-9.99,6.59-16.55,6.59s-12.07-2.2-16.55-6.59c-4.47-4.39-6.71-9.81-6.71-16.25s2.24-11.85,6.71-16.25c4.47-4.39,9.99-6.59,16.55-6.59s12.07,2.2,16.55,6.59c4.47,4.39,6.71,9.81,6.71,16.25ZM57.95,193.52c0,6.44-2.24,11.86-6.71,16.25-4.47,4.39-9.99,6.58-16.55,6.58s-12.07-2.2-16.55-6.58c-4.47-4.39-6.71-9.81-6.71-16.25s2.24-11.85,6.71-16.25c4.47-4.39,9.99-6.59,16.55-6.59s12.07,2.2,16.55,6.59,6.71,9.81,6.71,16.25ZM57.95,222.79c0,6.44-2.24,11.86-6.71,16.25-4.47,4.39-9.99,6.59-16.55,6.59s-12.07-2.2-16.55-6.59c-4.47-4.39-6.71-9.81-6.71-16.25s2.24-11.85,6.71-16.25c4.47-4.39,9.99-6.59,16.55-6.59s12.07,2.2,16.55,6.59,6.71,9.81,6.71,16.25ZM87.77,134.97c0,6.44-2.24,11.85-6.71,16.25-4.47,4.39-9.99,6.59-16.55,6.59s-12.07-2.2-16.55-6.59c-4.47-4.39-6.71-9.81-6.71-16.25s2.24-11.86,6.71-16.25c4.47-4.39,9.99-6.59,16.55-6.59s12.07,2.2,16.55,6.59c4.47,4.39,6.71,9.81,6.71,16.25ZM87.77,222.79c0,6.44-2.24,11.86-6.71,16.25s-9.99,6.59-16.55,6.59-12.07-2.2-16.55-6.59c-4.47-4.39-6.71-9.81-6.71-16.25s2.24-11.85,6.71-16.25c4.47-4.39,9.99-6.59,16.55-6.59s12.07,2.2,16.55,6.59c4.47,4.39,6.71,9.81,6.71,16.25ZM117.58,105.7c0,6.44-2.24,11.85-6.71,16.25-4.47,4.39-9.99,6.59-16.55,6.59s-12.07-2.2-16.55-6.59c-4.47-4.39-6.71-9.81-6.71-16.25s2.24-11.86,6.71-16.25c4.47-4.39,9.99-6.58,16.55-6.58s12.07,2.2,16.55,6.58c4.47,4.39,6.71,9.81,6.71,16.25ZM117.58,222.79c0,6.44-2.24,11.86-6.71,16.25-4.47,4.39-9.99,6.59-16.55,6.59s-12.07-2.2-16.55-6.59c-4.47-4.39-6.71-9.81-6.71-16.25s2.24-11.85,6.71-16.25c4.47-4.39,9.99-6.59,16.55-6.59s12.07,2.2,16.55,6.59c4.47,4.39,6.71,9.81,6.71,16.25ZM147.39,105.7c0,6.44-2.24,11.85-6.71,16.25-4.47,4.39-9.99,6.59-16.55,6.59s-12.07-2.2-16.55-6.59c-4.47-4.39-6.71-9.81-6.71-16.25s2.24-11.86,6.71-16.25c4.47-4.39,9.99-6.58,16.55-6.58s12.07,2.2,16.55,6.58c4.47,4.39,6.71,9.81,6.71,16.25ZM147.39,222.79c0,6.44-2.24,11.86-6.71,16.25-4.47,4.39-9.99,6.59-16.55,6.59s-12.07-2.2-16.55-6.59c-4.47-4.39-6.71-9.81-6.71-16.25s2.24-11.85,6.71-16.25c4.47-4.39,9.99-6.59,16.55-6.59s12.07,2.2,16.55,6.59c4.47,4.39,6.71,9.81,6.71,16.25ZM177.21,134.97c0,6.44-2.24,11.85-6.71,16.25s-9.99,6.59-16.55,6.59-12.07-2.2-16.55-6.59c-4.47-4.39-6.71-9.81-6.71-16.25s2.24-11.86,6.71-16.25c4.47-4.39,9.99-6.59,16.55-6.59s12.07,2.2,16.55,6.59c4.47,4.39,6.71,9.81,6.71,16.25ZM177.21,164.24c0,6.44-2.24,11.86-6.71,16.25-4.47,4.39-9.99,6.59-16.55,6.59s-12.07-2.2-16.55-6.59c-4.47-4.39-6.71-9.81-6.71-16.25s2.24-11.85,6.71-16.25c4.47-4.39,9.99-6.59,16.55-6.59s12.07,2.2,16.55,6.59c4.47,4.39,6.71,9.81,6.71,16.25ZM177.21,193.52c0,6.44-2.24,11.86-6.71,16.25-4.47,4.39-9.99,6.58-16.55,6.58s-12.07-2.2-16.55-6.58c-4.47-4.39-6.71-9.81-6.71-16.25s2.24-11.85,6.71-16.25c4.47-4.39,9.99-6.59,16.55-6.59s12.07,2.2,16.55,6.59,6.71,9.81,6.71,16.25Z"/>
  <path d="M236.83,134.97c0,6.44-2.24,11.85-6.71,16.25-4.47,4.39-9.99,6.59-16.55,6.59s-12.07-2.2-16.55-6.59c-4.47-4.39-6.71-9.81-6.71-16.25s2.24-11.86,6.71-16.25c4.47-4.39,9.99-6.59,16.55-6.59s12.07,2.2,16.55,6.59c4.47,4.39,6.71,9.81,6.71,16.25ZM236.83,164.24c0,6.44-2.24,11.86-6.71,16.25-4.47,4.39-9.99,6.59-16.55,6.59s-12.07-2.2-16.55-6.59c-4.47-4.39-6.71-9.81-6.71-16.25s2.24-11.85,6.71-16.25c4.47-4.39,9.99-6.59,16.55-6.59s12.07,2.2,16.55,6.59c4.47,4.39,6.71,9.81,6.71,16.25ZM236.83,193.52c0,6.44-2.24,11.86-6.71,16.25-4.47,4.39-9.99,6.58-16.55,6.58s-12.07-2.2-16.55-6.58c-4.47-4.39-6.71-9.81-6.71-16.25s2.24-11.85,6.71-16.25c4.47-4.39,9.99-6.59,16.55-6.59s12.07,2.2,16.55,6.59c4.47,4.39,6.71,9.81,6.71,16.25ZM266.65,105.7c0,6.44-2.24,11.85-6.71,16.25-4.47,4.39-9.99,6.59-16.55,6.59s-12.07-2.2-16.55-6.59c-4.47-4.39-6.71-9.81-6.71-16.25s2.24-11.86,6.71-16.25c4.47-4.39,9.99-6.58,16.55-6.58s12.07,2.2,16.55,6.58c4.47,4.39,6.71,9.81,6.71,16.25ZM266.65,222.79c0,6.44-2.24,11.86-6.71,16.25-4.47,4.39-9.99,6.59-16.55,6.59s-12.07-2.2-16.55-6.59c-4.47-4.39-6.71-9.81-6.71-16.25s2.24-11.85,6.71-16.25c4.47-4.39,9.99-6.59,16.55-6.59s12.07,2.2,16.55,6.59,6.71,9.81,6.71,16.25ZM296.46,105.7c0,6.44-2.24,11.85-6.71,16.25-4.47,4.39-9.99,6.59-16.55,6.59s-12.07-2.2-16.55-6.59c-4.47-4.39-6.71-9.81-6.71-16.25s2.24-11.86,6.71-16.25c4.47-4.39,9.99-6.58,16.55-6.58s12.07,2.2,16.55,6.58c4.47,4.39,6.71,9.81,6.71,16.25ZM296.46,222.79c0,6.44-2.24,11.86-6.71,16.25-4.47,4.39-9.99,6.59-16.55,6.59s-12.07-2.2-16.55-6.59c-4.47-4.39-6.71-9.81-6.71-16.25s2.24-11.85,6.71-16.25c4.47-4.39,9.99-6.59,16.55-6.59s12.07,2.2,16.55,6.59c4.47,4.39,6.71,9.81,6.71,16.25ZM326.28,105.7c0,6.44-2.24,11.85-6.71,16.25-4.47,4.39-9.99,6.59-16.55,6.59s-12.07-2.2-16.55-6.59c-4.47-4.39-6.71-9.81-6.71-16.25s2.24-11.86,6.71-16.25c4.47-4.39,9.99-6.58,16.55-6.58s12.07,2.2,16.55,6.58c4.47,4.39,6.71,9.81,6.71,16.25ZM326.28,222.79c0,6.44-2.24,11.86-6.71,16.25-4.47,4.39-9.99,6.59-16.55,6.59s-12.07-2.2-16.55-6.59c-4.47-4.39-6.71-9.81-6.71-16.25s2.24-11.85,6.71-16.25c4.47-4.39,9.99-6.59,16.55-6.59s12.07,2.2,16.55,6.59c4.47,4.39,6.71,9.81,6.71,16.25ZM356.09,134.97c0,6.44-2.24,11.85-6.71,16.25-4.47,4.39-9.99,6.59-16.55,6.59s-12.07-2.2-16.55-6.59c-4.47-4.39-6.71-9.81-6.71-16.25s2.24-11.86,6.71-16.25c4.47-4.39,9.99-6.59,16.55-6.59s12.07,2.2,16.55,6.59c4.47,4.39,6.71,9.81,6.71,16.25ZM356.09,164.24c0,6.44-2.24,11.86-6.71,16.25-4.47,4.39-9.99,6.59-16.55,6.59s-12.07-2.2-16.55-6.59c-4.47-4.39-6.71-9.81-6.71-16.25s2.24-11.85,6.71-16.25c4.47-4.39,9.99-6.59,16.55-6.59s12.07,2.2,16.55,6.59c4.47,4.39,6.71,9.81,6.71,16.25ZM356.09,193.52c0,6.44-2.24,11.86-6.71,16.25-4.47,4.39-9.99,6.58-16.55,6.58s-12.07-2.2-16.55-6.58c-4.47-4.39-6.71-9.81-6.71-16.25s2.24-11.85,6.71-16.25c4.47-4.39,9.99-6.59,16.55-6.59s12.07,2.2,16.55,6.59c4.47,4.39,6.71,9.81,6.71,16.25Z"/>
  <path d="M415.72,105.7c0,6.44-2.24,11.85-6.71,16.25-4.47,4.39-9.99,6.59-16.55,6.59s-12.07-2.2-16.55-6.59c-4.47-4.39-6.71-9.81-6.71-16.25s2.24-11.86,6.71-16.25c4.47-4.39,9.99-6.58,16.55-6.58s12.07,2.2,16.55,6.58c4.47,4.39,6.71,9.81,6.71,16.25ZM445.53,76.42c0,6.44-2.24,11.85-6.71,16.25-4.47,4.39-9.99,6.59-16.55,6.59s-12.07-2.2-16.55-6.59c-4.47-4.39-6.71-9.81-6.71-16.25s2.24-11.86,6.71-16.25c4.47-4.39,9.99-6.59,16.55-6.59s12.07,2.2,16.55,6.59c4.47,4.39,6.71,9.81,6.71,16.25ZM445.53,105.7c0,6.44-2.24,11.85-6.71,16.25-4.47,4.39-9.99,6.59-16.55,6.59s-12.07-2.2-16.55-6.59c-4.47-4.39-6.71-9.81-6.71-16.25s2.24-11.86,6.71-16.25c4.47-4.39,9.99-6.58,16.55-6.58s12.07,2.2,16.55,6.58c4.47,4.39,6.71,9.81,6.71,16.25ZM445.53,134.97c0,6.44-2.24,11.85-6.71,16.25-4.47,4.39-9.99,6.59-16.55,6.59s-12.07-2.2-16.55-6.59c-4.47-4.39-6.71-9.81-6.71-16.25s2.24-11.86,6.71-16.25c4.47-4.39,9.99-6.59,16.55-6.59s12.07,2.2,16.55,6.59c4.47,4.39,6.71,9.81,6.71,16.25ZM445.53,164.24c0,6.44-2.24,11.86-6.71,16.25-4.47,4.39-9.99,6.59-16.55,6.59s-12.07-2.2-16.55-6.59c-4.47-4.39-6.71-9.81-6.71-16.25s2.24-11.85,6.71-16.25c4.47-4.39,9.99-6.59,16.55-6.59s12.07,2.2,16.55,6.59c4.47,4.39,6.71,9.81,6.71,16.25ZM445.53,193.52c0,6.44-2.24,11.86-6.71,16.25-4.47,4.39-9.99,6.58-16.55,6.58s-12.07-2.2-16.55-6.58c-4.47-4.39-6.71-9.81-6.71-16.25s2.24-11.85,6.71-16.25c4.47-4.39,9.99-6.59,16.55-6.59s12.07,2.2,16.55,6.59c4.47,4.39,6.71,9.81,6.71,16.25ZM475.35,105.7c0,6.44-2.24,11.85-6.71,16.25-4.47,4.39-9.99,6.59-16.55,6.59s-12.07-2.2-16.55-6.59c-4.47-4.39-6.71-9.81-6.71-16.25s2.24-11.86,6.71-16.25c4.47-4.39,9.99-6.58,16.55-6.58s12.07,2.2,16.55,6.58c4.47,4.39,6.71,9.81,6.71,16.25ZM475.35,222.79c0,6.44-2.24,11.86-6.71,16.25-4.47,4.39-9.99,6.59-16.55,6.59s-12.07-2.2-16.55-6.59c-4.47-4.39-6.71-9.81-6.71-16.25s2.24-11.85,6.71-16.25c4.47-4.39,9.99-6.59,16.55-6.59s12.07,2.2,16.55,6.59c4.47,4.39,6.71,9.81,6.71,16.25ZM505.16,105.7c0,6.44-2.24,11.85-6.71,16.25-4.47,4.39-9.99,6.59-16.55,6.59s-12.07-2.2-16.55-6.59c-4.47-4.39-6.71-9.81-6.71-16.25s2.24-11.86,6.71-16.25c4.47-4.39,9.99-6.58,16.55-6.58s12.07,2.2,16.55,6.58c4.47,4.39,6.71,9.81,6.71,16.25ZM505.16,222.79c0,6.44-2.24,11.86-6.71,16.25-4.47,4.39-9.99,6.59-16.55,6.59s-12.07-2.2-16.55-6.59c-4.47-4.39-6.71-9.81-6.71-16.25s2.24-11.85,6.71-16.25c4.47-4.39,9.99-6.59,16.55-6.59s12.07,2.2,16.55,6.59,6.71,9.81,6.71,16.25ZM534.98,105.7c0,6.44-2.24,11.85-6.71,16.25-4.47,4.39-9.99,6.59-16.55,6.59s-12.07-2.2-16.55-6.59c-4.47-4.39-6.71-9.81-6.71-16.25s2.24-11.86,6.71-16.25c4.47-4.39,9.99-6.58,16.55-6.58s12.07,2.2,16.55,6.58c4.47,4.39,6.71,9.81,6.71,16.25ZM534.98,222.79c0,6.44-2.24,11.86-6.71,16.25-4.47,4.39-9.99,6.59-16.55,6.59s-12.07-2.2-16.55-6.59c-4.47-4.39-6.71-9.81-6.71-16.25s2.24-11.85,6.71-16.25c4.47-4.39,9.99-6.59,16.55-6.59s12.07,2.2,16.55,6.59,6.71,9.81,6.71,16.25Z"/>
  <path d="M594.6,134.97c0,6.44-2.24,11.85-6.71,16.25-4.47,4.39-9.99,6.59-16.55,6.59s-12.07-2.2-16.55-6.59c-4.47-4.39-6.71-9.81-6.71-16.25s2.24-11.86,6.71-16.25c4.47-4.39,9.99-6.59,16.55-6.59s12.07,2.2,16.55,6.59c4.47,4.39,6.71,9.81,6.71,16.25ZM594.6,222.79c0,6.44-2.24,11.86-6.71,16.25-4.47,4.39-9.99,6.59-16.55,6.59s-12.07-2.2-16.55-6.59c-4.47-4.39-6.71-9.81-6.71-16.25s2.24-11.85,6.71-16.25c4.47-4.39,9.99-6.59,16.55-6.59s12.07,2.2,16.55,6.59c4.47,4.39,6.71,9.81,6.71,16.25ZM624.42,105.7c0,6.44-2.24,11.85-6.71,16.25-4.47,4.39-9.99,6.59-16.55,6.59s-12.07-2.2-16.55-6.59c-4.47-4.39-6.71-9.81-6.71-16.25s2.24-11.86,6.71-16.25c4.47-4.39,9.99-6.58,16.55-6.58s12.07,2.2,16.55,6.58c4.47,4.39,6.71,9.81,6.71,16.25ZM624.42,164.24c0,6.44-2.24,11.86-6.71,16.25-4.47,4.39-9.99,6.59-16.55,6.59s-12.07-2.2-16.55-6.59c-4.47-4.39-6.71-9.81-6.71-16.25s2.24-11.85,6.71-16.25,9.99-6.59,16.55-6.59,12.07,2.2,16.55,6.59,6.71,9.81,6.71,16.25ZM624.42,222.79c0,6.44-2.24,11.86-6.71,16.25s-9.99,6.59-16.55,6.59-12.07-2.2-16.55-6.59c-4.47-4.39-6.71-9.81-6.71-16.25s2.24-11.85,6.71-16.25c4.47-4.39,9.99-6.59,16.55-6.59s12.07,2.2,16.55,6.59c4.47,4.39,6.71,9.81,6.71,16.25ZM654.23,105.7c0,6.44-2.24,11.85-6.71,16.25-4.47,4.39-9.99,6.59-16.55,6.59s-12.07-2.2-16.55-6.59c-4.47-4.39-6.71-9.81-6.71-16.25s2.24-11.86,6.71-16.25c4.47-4.39,9.99-6.58,16.55-6.58s12.07,2.2,16.55,6.58c4.47,4.39,6.71,9.81,6.71,16.25ZM654.23,164.24c0,6.44-2.24,11.86-6.71,16.25-4.47,4.39-9.99,6.59-16.55,6.59s-12.07-2.2-16.55-6.59c-4.47-4.39-6.71-9.81-6.71-16.25s2.24-11.85,6.71-16.25c4.47-4.39,9.99-6.59,16.55-6.59s12.07,2.2,16.55,6.59c4.47,4.39,6.71,9.81,6.71,16.25ZM654.23,222.79c0,6.44-2.24,11.86-6.71,16.25-4.47,4.39-9.99,6.59-16.55,6.59s-12.07-2.2-16.55-6.59c-4.47-4.39-6.71-9.81-6.71-16.25s2.24-11.85,6.71-16.25,9.99-6.59,16.55-6.59,12.07,2.2,16.55,6.59c4.47,4.39,6.71,9.81,6.71,16.25ZM684.05,105.7c0,6.44-2.24,11.85-6.71,16.25-4.47,4.39-9.99,6.59-16.55,6.59s-12.07-2.2-16.55-6.59c-4.47-4.39-6.71-9.81-6.71-16.25s2.24-11.86,6.71-16.25c4.47-4.39,9.99-6.58,16.55-6.58s12.07,2.2,16.55,6.58c4.47,4.39,6.71,9.81,6.71,16.25ZM684.05,164.24c0,6.44-2.24,11.86-6.71,16.25-4.47,4.39-9.99,6.59-16.55,6.59s-12.07-2.2-16.55-6.59c-4.47-4.39-6.71-9.81-6.71-16.25s2.24-11.85,6.71-16.25c4.47-4.39,9.99-6.59,16.55-6.59s12.07,2.2,16.55,6.59c4.47,4.39,6.71,9.81,6.71,16.25ZM684.05,222.79c0,6.44-2.24,11.86-6.71,16.25-4.47,4.39-9.99,6.59-16.55,6.59s-12.07-2.2-16.55-6.59c-4.47-4.39-6.71-9.81-6.71-16.25s2.24-11.85,6.71-16.25c4.47-4.39,9.99-6.59,16.55-6.59s12.07,2.2,16.55,6.59,6.71,9.81,6.71,16.25ZM713.86,105.7c0,6.44-2.24,11.85-6.71,16.25-4.47,4.39-9.99,6.59-16.55,6.59s-12.07-2.2-16.55-6.59c-4.47-4.39-6.71-9.81-6.71-16.25s2.24-11.86,6.71-16.25c4.47-4.39,9.99-6.58,16.55-6.58s12.07,2.2,16.55,6.58c4.47,4.39,6.71,9.81,6.71,16.25ZM713.86,193.52c0,6.44-2.24,11.86-6.71,16.25-4.47,4.39-9.99,6.58-16.55,6.58s-12.07-2.2-16.55-6.58c-4.47-4.39-6.71-9.81-6.71-16.25s2.24-11.85,6.71-16.25c4.47-4.39,9.99-6.59,16.55-6.59s12.07,2.2,16.55,6.59c4.47,4.39,6.71,9.81,6.71,16.25Z"/>
  <path d="M887.68,105.7c0,6.44-2.24,11.85-6.71,16.25-4.47,4.39-9.99,6.59-16.55,6.59s-12.07-2.2-16.55-6.59c-4.47-4.39-6.71-9.81-6.71-16.25s2.24-11.86,6.71-16.25c4.47-4.39,9.99-6.58,16.55-6.58s12.07,2.2,16.55,6.58c4.47,4.39,6.71,9.81,6.71,16.25ZM887.68,134.97c0,6.44-2.24,11.85-6.71,16.25-4.47,4.39-9.99,6.59-16.55,6.59s-12.07-2.2-16.55-6.59c-4.47-4.39-6.71-9.81-6.71-16.25s2.24-11.86,6.71-16.25c4.47-4.39,9.99-6.59,16.55-6.59s12.07,2.2,16.55,6.59c4.47,4.39,6.71,9.81,6.71,16.25ZM887.68,164.24c0,6.44-2.24,11.86-6.71,16.25-4.47,4.39-9.99,6.59-16.55,6.59s-12.07-2.2-16.55-6.59c-4.47-4.39-6.71-9.81-6.71-16.25s2.24-11.85,6.71-16.25c4.47-4.39,9.99-6.59,16.55-6.59s12.07,2.2,16.55,6.59c4.47,4.39,6.71,9.81,6.71,16.25ZM887.68,193.52c0,6.44-2.24,11.86-6.71,16.25-4.47,4.39-9.99,6.58-16.55,6.58s-12.07-2.2-16.55-6.58c-4.47-4.39-6.71-9.81-6.71-16.25s2.24-11.85,6.71-16.25c4.47-4.39,9.99-6.59,16.55-6.59s12.07,2.2,16.55,6.59c4.47,4.39,6.71,9.81,6.71,16.25ZM887.68,222.79c0,6.44-2.24,11.86-6.71,16.25s-9.99,6.59-16.55,6.59-12.07-2.2-16.55-6.59c-4.47-4.39-6.71-9.81-6.71-16.25s2.24-11.85,6.71-16.25c4.47-4.39,9.99-6.59,16.55-6.59s12.07,2.2,16.55,6.59c4.47,4.39,6.71,9.81,6.71,16.25ZM917.5,134.97c0,6.44-2.24,11.85-6.71,16.25s-9.99,6.59-16.55,6.59-12.07-2.2-16.55-6.59c-4.47-4.39-6.71-9.81-6.71-16.25s2.24-11.86,6.71-16.25c4.47-4.39,9.99-6.59,16.55-6.59s12.07,2.2,16.55,6.59c4.47,4.39,6.71,9.81,6.71,16.25ZM947.31,105.7c0,6.44-2.24,11.85-6.71,16.25-4.47,4.39-9.99,6.59-16.55,6.59s-12.07-2.2-16.55-6.59c-4.47-4.39-6.71-9.81-6.71-16.25s2.24-11.86,6.71-16.25c4.47-4.39,9.99-6.58,16.55-6.58s12.07,2.2,16.55,6.58c4.47,4.39,6.71,9.81,6.71,16.25ZM977.13,105.7c0,6.44-2.24,11.85-6.71,16.25-4.47,4.39-9.99,6.59-16.55,6.59s-12.07-2.2-16.55-6.59c-4.47-4.39-6.71-9.81-6.71-16.25s2.24-11.86,6.71-16.25c4.47-4.39,9.99-6.58,16.55-6.58s12.07,2.2,16.55,6.58c4.47,4.39,6.71,9.81,6.71,16.25ZM1006.94,134.97c0,6.44-2.24,11.85-6.7,16.25-4.47,4.39-9.99,6.59-16.55,6.59s-12.07-2.2-16.55-6.59-6.71-9.81-6.71-16.25,2.24-11.86,6.71-16.25c4.47-4.39,9.99-6.59,16.55-6.59s12.08,2.2,16.55,6.59c4.47,4.39,6.7,9.81,6.7,16.25ZM1006.94,164.24c0,6.44-2.24,11.86-6.7,16.25-4.47,4.39-9.99,6.59-16.55,6.59s-12.07-2.2-16.55-6.59c-4.47-4.39-6.71-9.81-6.71-16.25s2.24-11.85,6.71-16.25c4.47-4.39,9.99-6.59,16.55-6.59s12.08,2.2,16.55,6.59c4.47,4.39,6.7,9.81,6.7,16.25ZM1006.94,193.52c0,6.44-2.24,11.86-6.7,16.25-4.47,4.39-9.99,6.58-16.55,6.58s-12.07-2.2-16.55-6.58c-4.47-4.39-6.71-9.81-6.71-16.25s2.24-11.85,6.71-16.25,9.99-6.59,16.55-6.59,12.08,2.2,16.55,6.59c4.47,4.39,6.7,9.81,6.7,16.25ZM1006.94,222.79c0,6.44-2.24,11.86-6.7,16.25-4.47,4.39-9.99,6.59-16.55,6.59s-12.07-2.2-16.55-6.59c-4.47-4.39-6.71-9.81-6.71-16.25s2.24-11.85,6.71-16.25,9.99-6.59,16.55-6.59,12.08,2.2,16.55,6.59c4.47,4.39,6.7,9.81,6.7,16.25Z"/>
  <path d="M1187.24,134.97c0,6.44-2.24,11.85-6.71,16.25s-9.99,6.59-16.55,6.59-12.08-2.2-16.55-6.59c-4.47-4.39-6.71-9.81-6.71-16.25s2.24-11.86,6.71-16.25c4.47-4.39,9.99-6.59,16.55-6.59s12.07,2.2,16.55,6.59c4.47,4.39,6.71,9.81,6.71,16.25ZM1187.24,164.24c0,6.44-2.24,11.86-6.71,16.25-4.47,4.39-9.99,6.59-16.55,6.59s-12.08-2.2-16.55-6.59c-4.47-4.39-6.71-9.81-6.71-16.25s2.24-11.85,6.71-16.25c4.47-4.39,9.99-6.59,16.55-6.59s12.07,2.2,16.55,6.59c4.47,4.39,6.71,9.81,6.71,16.25ZM1187.24,193.52c0,6.44-2.24,11.86-6.71,16.25-4.47,4.39-9.99,6.58-16.55,6.58s-12.08-2.2-16.55-6.58c-4.47-4.39-6.71-9.81-6.71-16.25s2.24-11.85,6.71-16.25c4.47-4.39,9.99-6.59,16.55-6.59s12.07,2.2,16.55,6.59,6.71,9.81,6.71,16.25ZM1217.05,105.7c0,6.44-2.24,11.85-6.71,16.25-4.47,4.39-9.99,6.59-16.55,6.59s-12.08-2.2-16.55-6.59c-4.47-4.39-6.71-9.81-6.71-16.25s2.24-11.86,6.71-16.25c4.47-4.39,9.99-6.58,16.55-6.58s12.07,2.2,16.55,6.58c4.47,4.39,6.71,9.81,6.71,16.25ZM1217.05,222.79c0,6.44-2.24,11.86-6.71,16.25-4.47,4.39-9.99,6.59-16.55,6.59s-12.08-2.2-16.55-6.59c-4.47-4.39-6.71-9.81-6.71-16.25s2.24-11.85,6.71-16.25c4.47-4.39,9.99-6.59,16.55-6.59s12.07,2.2,16.55,6.59,6.71,9.81,6.71,16.25ZM1246.86,105.7c0,6.44-2.24,11.85-6.71,16.25-4.47,4.39-9.99,6.59-16.55,6.59s-12.08-2.2-16.55-6.59c-4.47-4.39-6.71-9.81-6.71-16.25s2.24-11.86,6.71-16.25c4.47-4.39,9.99-6.58,16.55-6.58s12.07,2.2,16.55,6.58c4.47,4.39,6.71,9.81,6.71,16.25ZM1246.86,222.79c0,6.44-2.24,11.86-6.71,16.25-4.47,4.39-9.99,6.59-16.55,6.59s-12.08-2.2-16.55-6.59c-4.47-4.39-6.71-9.81-6.71-16.25s2.24-11.85,6.71-16.25c4.47-4.39,9.99-6.59,16.55-6.59s12.07,2.2,16.55,6.59c4.47,4.39,6.71,9.81,6.71,16.25ZM1276.68,105.7c0,6.44-2.24,11.85-6.71,16.25-4.47,4.39-9.99,6.59-16.55,6.59s-12.07-2.2-16.55-6.59c-4.47-4.39-6.71-9.81-6.71-16.25s2.24-11.86,6.71-16.25c4.47-4.39,9.99-6.58,16.55-6.58s12.08,2.2,16.55,6.58c4.47,4.39,6.71,9.81,6.71,16.25ZM1276.68,222.79c0,6.44-2.24,11.86-6.71,16.25-4.47,4.39-9.99,6.59-16.55,6.59s-12.07-2.2-16.55-6.59c-4.47-4.39-6.71-9.81-6.71-16.25s2.24-11.85,6.71-16.25c4.47-4.39,9.99-6.59,16.55-6.59s12.08,2.2,16.55,6.59c4.47,4.39,6.71,9.81,6.71,16.25ZM1306.49,105.7c0,6.44-2.24,11.85-6.71,16.25-4.47,4.39-9.99,6.59-16.55,6.59s-12.07-2.2-16.55-6.59c-4.47-4.39-6.71-9.81-6.71-16.25s2.24-11.86,6.71-16.25c4.47-4.39,9.99-6.58,16.55-6.58s12.08,2.2,16.55,6.58c4.47,4.39,6.71,9.81,6.71,16.25ZM1306.49,193.52c0,6.44-2.24,11.86-6.71,16.25-4.47,4.39-9.99,6.58-16.55,6.58s-12.07-2.2-16.55-6.58c-4.47-4.39-6.71-9.81-6.71-16.25s2.24-11.85,6.71-16.25c4.47-4.39,9.99-6.59,16.55-6.59s12.08,2.2,16.55,6.59c4.47,4.39,6.71,9.81,6.71,16.25Z"/>
  <path d="M1366.12,193.52c0,6.44-2.24,11.86-6.71,16.25-4.47,4.39-9.99,6.58-16.55,6.58s-12.08-2.2-16.55-6.58c-4.47-4.39-6.71-9.81-6.71-16.25s2.24-11.85,6.71-16.25,9.99-6.59,16.55-6.59,12.07,2.2,16.55,6.59c4.47,4.39,6.71,9.81,6.71,16.25ZM1395.93,105.7c0,6.44-2.24,11.85-6.71,16.25-4.47,4.39-9.99,6.59-16.55,6.59s-12.08-2.2-16.55-6.59c-4.47-4.39-6.71-9.81-6.71-16.25s2.24-11.86,6.71-16.25c4.47-4.39,9.99-6.58,16.55-6.58s12.07,2.2,16.55,6.58c4.47,4.39,6.71,9.81,6.71,16.25ZM1395.93,164.24c0,6.44-2.24,11.86-6.71,16.25-4.47,4.39-9.99,6.59-16.55,6.59s-12.08-2.2-16.55-6.59c-4.47-4.39-6.71-9.81-6.71-16.25s2.24-11.85,6.71-16.25c4.47-4.39,9.99-6.59,16.55-6.59s12.07,2.2,16.55,6.59c4.47,4.39,6.71,9.81,6.71,16.25ZM1395.93,222.79c0,6.44-2.24,11.86-6.71,16.25s-9.99,6.59-16.55,6.59-12.08-2.2-16.55-6.59c-4.47-4.39-6.71-9.81-6.71-16.25s2.24-11.85,6.71-16.25c4.47-4.39,9.99-6.59,16.55-6.59s12.07,2.2,16.55,6.59c4.47,4.39,6.71,9.81,6.71,16.25ZM1425.75,105.7c0,6.44-2.24,11.85-6.71,16.25-4.47,4.39-9.99,6.59-16.55,6.59s-12.08-2.2-16.55-6.59c-4.47-4.39-6.71-9.81-6.71-16.25s2.24-11.86,6.71-16.25c4.47-4.39,9.99-6.58,16.55-6.58s12.07,2.2,16.55,6.58c4.47,4.39,6.71,9.81,6.71,16.25ZM1425.75,164.24c0,6.44-2.24,11.86-6.71,16.25-4.47,4.39-9.99,6.59-16.55,6.59s-12.08-2.2-16.55-6.59c-4.47-4.39-6.71-9.81-6.71-16.25s2.24-11.85,6.71-16.25c4.47-4.39,9.99-6.59,16.55-6.59s12.07,2.2,16.55,6.59c4.47,4.39,6.71,9.81,6.71,16.25ZM1425.75,222.79c0,6.44-2.24,11.86-6.71,16.25-4.47,4.39-9.99,6.59-16.55,6.59s-12.08-2.2-16.55-6.59c-4.47-4.39-6.71-9.81-6.71-16.25s2.24-11.85,6.71-16.25c4.47-4.39,9.99-6.59,16.55-6.59s12.07,2.2,16.55,6.59,6.71,9.81,6.71,16.25ZM1455.56,105.7c0,6.44-2.24,11.85-6.71,16.25-4.47,4.39-9.99,6.59-16.55,6.59s-12.07-2.2-16.55-6.59c-4.47-4.39-6.71-9.81-6.71-16.25s2.24-11.86,6.71-16.25c4.47-4.39,9.99-6.58,16.55-6.58s12.08,2.2,16.55,6.58c4.47,4.39,6.71,9.81,6.71,16.25ZM1455.56,164.24c0,6.44-2.24,11.86-6.71,16.25-4.47,4.39-9.99,6.59-16.55,6.59s-12.07-2.2-16.55-6.59c-4.47-4.39-6.71-9.81-6.71-16.25s2.24-11.85,6.71-16.25c4.47-4.39,9.99-6.59,16.55-6.59s12.08,2.2,16.55,6.59c4.47,4.39,6.71,9.81,6.71,16.25ZM1485.37,134.97c0,6.44-2.24,11.85-6.71,16.25-4.47,4.39-9.99,6.59-16.55,6.59s-12.07-2.2-16.55-6.59c-4.47-4.39-6.71-9.81-6.71-16.25s2.24-11.86,6.71-16.25c4.47-4.39,9.99-6.59,16.55-6.59s12.08,2.2,16.55,6.59c4.47,4.39,6.71,9.81,6.71,16.25ZM1485.37,164.24c0,6.44-2.24,11.86-6.71,16.25-4.47,4.39-9.99,6.59-16.55,6.59s-12.07-2.2-16.55-6.59c-4.47-4.39-6.71-9.81-6.71-16.25s2.24-11.85,6.71-16.25c4.47-4.39,9.99-6.59,16.55-6.59s12.08,2.2,16.55,6.59c4.47,4.39,6.71,9.81,6.71,16.25ZM1485.37,193.52c0,6.44-2.24,11.86-6.71,16.25-4.47,4.39-9.99,6.58-16.55,6.58s-12.07-2.2-16.55-6.58c-4.47-4.39-6.71-9.81-6.71-16.25s2.24-11.85,6.71-16.25c4.47-4.39,9.99-6.59,16.55-6.59s12.08,2.2,16.55,6.59c4.47,4.39,6.71,9.81,6.71,16.25ZM1485.37,222.79c0,6.44-2.24,11.86-6.71,16.25-4.47,4.39-9.99,6.59-16.55,6.59s-12.07-2.2-16.55-6.59c-4.47-4.39-6.71-9.81-6.71-16.25s2.24-11.85,6.71-16.25c4.47-4.39,9.99-6.59,16.55-6.59s12.08,2.2,16.55,6.59c4.47,4.39,6.71,9.81,6.71,16.25Z"/>
  <path d="M1545,105.7c0,6.44-2.24,11.85-6.71,16.25-4.47,4.39-9.99,6.59-16.55,6.59s-12.08-2.2-16.55-6.59c-4.47-4.39-6.71-9.81-6.71-16.25s2.24-11.86,6.71-16.25c4.47-4.39,9.99-6.58,16.55-6.58s12.07,2.2,16.55,6.58c4.47,4.39,6.71,9.81,6.71,16.25ZM1574.82,76.42c0,6.44-2.24,11.85-6.71,16.25-4.47,4.39-9.99,6.59-16.55,6.59s-12.08-2.2-16.55-6.59c-4.47-4.39-6.71-9.81-6.71-16.25s2.24-11.86,6.71-16.25c4.47-4.39,9.99-6.59,16.55-6.59s12.07,2.2,16.55,6.59c4.47,4.39,6.71,9.81,6.71,16.25ZM1574.82,105.7c0,6.44-2.24,11.85-6.71,16.25-4.47,4.39-9.99,6.59-16.55,6.59s-12.08-2.2-16.55-6.59c-4.47-4.39-6.71-9.81-6.71-16.25s2.24-11.86,6.71-16.25c4.47-4.39,9.99-6.58,16.55-6.58s12.07,2.2,16.55,6.58c4.47,4.39,6.71,9.81,6.71,16.25ZM1574.82,134.97c0,6.44-2.24,11.85-6.71,16.25-4.47,4.39-9.99,6.59-16.55,6.59s-12.08-2.2-16.55-6.59c-4.47-4.39-6.71-9.81-6.71-16.25s2.24-11.86,6.71-16.25c4.47-4.39,9.99-6.59,16.55-6.59s12.07,2.2,16.55,6.59c4.47,4.39,6.71,9.81,6.71,16.25ZM1574.82,164.24c0,6.44-2.24,11.86-6.71,16.25-4.47,4.39-9.99,6.59-16.55,6.59s-12.08-2.2-16.55-6.59c-4.47-4.39-6.71-9.81-6.71-16.25s2.24-11.85,6.71-16.25c4.47-4.39,9.99-6.59,16.55-6.59s12.07,2.2,16.55,6.59c4.47,4.39,6.71,9.81,6.71,16.25ZM1574.82,193.52c0,6.44-2.24,11.86-6.71,16.25-4.47,4.39-9.99,6.58-16.55,6.58s-12.08-2.2-16.55-6.58c-4.47-4.39-6.71-9.81-6.71-16.25s2.24-11.85,6.71-16.25c4.47-4.39,9.99-6.59,16.55-6.59s12.07,2.2,16.55,6.59c4.47,4.39,6.71,9.81,6.71,16.25ZM1604.63,105.7c0,6.44-2.24,11.85-6.71,16.25-4.47,4.39-9.99,6.59-16.55,6.59s-12.08-2.2-16.55-6.59c-4.47-4.39-6.71-9.81-6.71-16.25s2.24-11.86,6.71-16.25c4.47-4.39,9.99-6.58,16.55-6.58s12.07,2.2,16.55,6.58c4.47,4.39,6.71,9.81,6.71,16.25ZM1604.63,222.79c0,6.44-2.24,11.86-6.71,16.25s-9.99,6.59-16.55,6.59-12.08-2.2-16.55-6.59c-4.47-4.39-6.71-9.81-6.71-16.25s2.24-11.85,6.71-16.25c4.47-4.39,9.99-6.59,16.55-6.59s12.07,2.2,16.55,6.59c4.47,4.39,6.71,9.81,6.71,16.25ZM1634.44,105.7c0,6.44-2.24,11.85-6.71,16.25-4.47,4.39-9.99,6.59-16.55,6.59s-12.07-2.2-16.55-6.59c-4.47-4.39-6.71-9.81-6.71-16.25s2.24-11.86,6.71-16.25c4.47-4.39,9.99-6.58,16.55-6.58s12.08,2.2,16.55,6.58,6.71,9.81,6.71,16.25ZM1634.44,222.79c0,6.44-2.24,11.86-6.71,16.25-4.47,4.39-9.99,6.59-16.55,6.59s-12.07-2.2-16.55-6.59c-4.47-4.39-6.71-9.81-6.71-16.25s2.24-11.85,6.71-16.25c4.47-4.39,9.99-6.59,16.55-6.59s12.08,2.2,16.55,6.59c4.47,4.39,6.71,9.81,6.71,16.25ZM1664.26,105.7c0,6.44-2.24,11.85-6.71,16.25-4.47,4.39-9.99,6.59-16.55,6.59s-12.07-2.2-16.55-6.59c-4.47-4.39-6.71-9.81-6.71-16.25s2.24-11.86,6.71-16.25c4.47-4.39,9.99-6.58,16.55-6.58s12.08,2.2,16.55,6.58c4.47,4.39,6.71,9.81,6.71,16.25ZM1664.26,222.79c0,6.44-2.24,11.86-6.71,16.25-4.47,4.39-9.99,6.59-16.55,6.59s-12.07-2.2-16.55-6.59-6.71-9.81-6.71-16.25,2.24-11.85,6.71-16.25c4.47-4.39,9.99-6.59,16.55-6.59s12.08,2.2,16.55,6.59c4.47,4.39,6.71,9.81,6.71,16.25Z"/>
  <path d="M1723.89,134.97c0,6.44-2.24,11.85-6.71,16.25-4.47,4.39-9.99,6.59-16.55,6.59s-12.08-2.2-16.55-6.59-6.71-9.81-6.71-16.25,2.24-11.86,6.71-16.25c4.47-4.39,9.99-6.59,16.55-6.59s12.07,2.2,16.55,6.59c4.47,4.39,6.71,9.81,6.71,16.25ZM1723.89,222.79c0,6.44-2.24,11.86-6.71,16.25s-9.99,6.59-16.55,6.59-12.08-2.2-16.55-6.59c-4.47-4.39-6.71-9.81-6.71-16.25s2.24-11.85,6.71-16.25,9.99-6.59,16.55-6.59,12.07,2.2,16.55,6.59c4.47,4.39,6.71,9.81,6.71,16.25ZM1753.7,105.7c0,6.44-2.24,11.85-6.71,16.25-4.47,4.39-9.99,6.59-16.55,6.59s-12.08-2.2-16.55-6.59c-4.47-4.39-6.71-9.81-6.71-16.25s2.24-11.86,6.71-16.25c4.47-4.39,9.99-6.58,16.55-6.58s12.07,2.2,16.55,6.58c4.47,4.39,6.71,9.81,6.71,16.25ZM1753.7,164.24c0,6.44-2.24,11.86-6.71,16.25-4.47,4.39-9.99,6.59-16.55,6.59s-12.08-2.2-16.55-6.59c-4.47-4.39-6.71-9.81-6.71-16.25s2.24-11.85,6.71-16.25c4.47-4.39,9.99-6.59,16.55-6.59s12.07,2.2,16.55,6.59c4.47,4.39,6.71,9.81,6.71,16.25ZM1753.7,222.79c0,6.44-2.24,11.86-6.71,16.25-4.47,4.39-9.99,6.59-16.55,6.59s-12.08-2.2-16.55-6.59c-4.47-4.39-6.71-9.81-6.71-16.25s2.24-11.85,6.71-16.25c4.47-4.39,9.99-6.59,16.55-6.59s12.07,2.2,16.55,6.59c4.47,4.39,6.71,9.81,6.71,16.25ZM1783.52,105.7c0,6.44-2.24,11.85-6.71,16.25-4.47,4.39-9.99,6.59-16.55,6.59s-12.08-2.2-16.55-6.59c-4.47-4.39-6.71-9.81-6.71-16.25s2.24-11.86,6.71-16.25c4.47-4.39,9.99-6.58,16.55-6.58s12.07,2.2,16.55,6.58c4.47,4.39,6.71,9.81,6.71,16.25ZM1783.52,164.24c0,6.44-2.24,11.86-6.71,16.25-4.47,4.39-9.99,6.59-16.55,6.59s-12.08-2.2-16.55-6.59c-4.47-4.39-6.71-9.81-6.71-16.25s2.24-11.85,6.71-16.25c4.47-4.39,9.99-6.59,16.55-6.59s12.07,2.2,16.55,6.59c4.47,4.39,6.71,9.81,6.71,16.25ZM1783.52,222.79c0,6.44-2.24,11.86-6.71,16.25-4.47,4.39-9.99,6.59-16.55,6.59s-12.08-2.2-16.55-6.59c-4.47-4.39-6.71-9.81-6.71-16.25s2.24-11.85,6.71-16.25c4.47-4.39,9.99-6.59,16.55-6.59s12.07,2.2,16.55,6.59,6.71,9.81,6.71,16.25ZM1813.33,105.7c0,6.44-2.24,11.85-6.71,16.25-4.47,4.39-9.99,6.59-16.55,6.59s-12.07-2.2-16.55-6.59c-4.47-4.39-6.71-9.81-6.71-16.25s2.24-11.86,6.71-16.25c4.47-4.39,9.99-6.58,16.55-6.58s12.08,2.2,16.55,6.58c4.47,4.39,6.71,9.81,6.71,16.25ZM1813.33,164.24c0,6.44-2.24,11.86-6.71,16.25-4.47,4.39-9.99,6.59-16.55,6.59s-12.07-2.2-16.55-6.59c-4.47-4.39-6.71-9.81-6.71-16.25s2.24-11.85,6.71-16.25,9.99-6.59,16.55-6.59,12.08,2.2,16.55,6.59c4.47,4.39,6.71,9.81,6.71,16.25ZM1813.33,222.79c0,6.44-2.24,11.86-6.71,16.25-4.47,4.39-9.99,6.59-16.55,6.59s-12.07-2.2-16.55-6.59-6.71-9.81-6.71-16.25,2.24-11.85,6.71-16.25c4.47-4.39,9.99-6.59,16.55-6.59s12.08,2.2,16.55,6.59c4.47,4.39,6.71,9.81,6.71,16.25ZM1843.14,105.7c0,6.44-2.24,11.85-6.71,16.25-4.47,4.39-9.99,6.59-16.55,6.59s-12.07-2.2-16.55-6.59c-4.47-4.39-6.71-9.81-6.71-16.25s2.24-11.86,6.71-16.25c4.47-4.39,9.99-6.58,16.55-6.58s12.08,2.2,16.55,6.58c4.47,4.39,6.71,9.81,6.71,16.25ZM1843.14,193.52c0,6.44-2.24,11.86-6.71,16.25-4.47,4.39-9.99,6.58-16.55,6.58s-12.07-2.2-16.55-6.58c-4.47-4.39-6.71-9.81-6.71-16.25s2.24-11.85,6.71-16.25c4.47-4.39,9.99-6.59,16.55-6.59s12.08,2.2,16.55,6.59c4.47,4.39,6.71,9.81,6.71,16.25Z"/>
  <g>
    <path d="M788.27,82.15c.11-.22.2-.46.28-.71l10.84-35.08c.64-2.07,2.4-2.49,3.84-.84,1.11,1.27,2.31,2.71,3.52,4.31,5,6.59,5.4,15.27,2.74,22.26-2.67,6.99-7.71,8.97-6.09,11.18,1.62,2.22,7.98-3.29,12.11-9.85,4.13-6.56,4.59-17.53.87-26.51-3.73-8.98-9.16-14.76-10.2-19.44-.06-.3-.13-.59-.2-.88-.11-.49-.06-1.31.1-1.85l.3-.97c.81-2.63-.69-5.4-3.38-6.2-2.67-.8-5.5.69-6.31,3.31l-13.15,42.54"/>
    <path d="M792.76,73.4c0,6.44-2.24,11.85-6.71,16.25-4.47,4.39-9.99,6.59-16.55,6.59s-12.07-2.2-16.55-6.59c-4.47-4.39-6.71-9.81-6.71-16.25s2.24-11.86,6.71-16.25c4.47-4.39,9.99-6.58,16.55-6.58s12.07,2.2,16.55,6.58c4.47,4.39,6.71,9.81,6.71,16.25Z"/>
  </g>
  <g>
    <path d="M1070.07,109.13c.11-.22.2-.46.28-.71l10.84-35.08c.64-2.07,2.4-2.49,3.84-.84,1.11,1.27,2.31,2.71,3.52,4.31,5,6.59,5.4,15.27,2.74,22.26-2.67,6.99-7.71,8.97-6.09,11.18,1.62,2.22,7.98-3.29,12.11-9.85,4.13-6.56,4.59-17.53.87-26.51-3.73-8.98-9.16-14.76-10.2-19.44-.06-.3-.13-.59-.2-.88-.11-.49-.06-1.31.1-1.85l.3-.97c.81-2.63-.69-5.4-3.38-6.2-2.67-.8-5.5.69-6.31,3.31l-13.15,42.54"/>
    <path d="M1074.57,100.38c0,6.44-2.24,11.85-6.71,16.25-4.47,4.39-9.99,6.59-16.55,6.59s-12.07-2.2-16.55-6.59c-4.47-4.39-6.71-9.81-6.71-16.25s2.24-11.86,6.71-16.25c4.47-4.39,9.99-6.58,16.55-6.58s12.07,2.2,16.55,6.58c4.47,4.39,6.71,9.81,6.71,16.25Z"/>
  </g>
  </svg>
